<?xml version="1.0" encoding="UTF-8" standalone="no"?><!-- Generator: Gravit.io --><svg xmlns="http://www.w3.org/2000/svg" xmlns:xlink="http://www.w3.org/1999/xlink" style="isolation:isolate" viewBox="885.521 468.718 98.959 96.565" width="98.959pt" height="96.565pt"><mask id="_mask_OVNR59qiAKIm2IJXhQMQpexFIl3IHbhM"><path d=" M 889.06 517.972 L 885.797 517.972 L 885.797 517.972 Q 885.521 517.972 885.521 517.696 L 885.521 517.696 L 885.521 516.866 L 885.521 516.866 Q 885.521 516.59 885.97 516.59 L 885.97 516.59 L 885.97 516.59 Q 890.705 516.382 892.364 511.543 L 892.364 511.543 L 906.467 470.722 L 906.467 470.722 Q 906.501 470.653 906.501 470.55 L 906.501 470.55 L 906.121 469.409 L 906.121 469.409 Q 906.121 469.236 906.259 469.236 L 906.259 469.236 L 913.172 469.236 L 913.172 469.236 Q 913.241 469.271 913.362 469.305 L 913.362 469.305 L 913.362 469.305 Q 913.483 469.34 913.553 469.513 L 913.553 469.513 L 928.173 510.541 L 928.173 510.541 Q 928.657 511.474 928.951 512.235 L 928.951 512.235 L 928.951 512.235 Q 929.245 512.995 929.625 513.617 L 929.625 513.617 L 929.625 513.617 Q 930.455 515.034 932.356 515.795 L 932.356 515.795 L 932.356 515.795 Q 933.572 516.403 934.627 516.546 L 939.621 516.546 Q 939.89 516.494 940.254 516.382 L 940.254 516.382 L 940.254 516.382 Q 940.928 516.175 941.274 516.106 L 941.274 516.106 L 941.274 516.106 Q 944.799 515.311 944.799 512.096 L 944.799 512.096 L 944.799 475.596 L 944.799 475.596 Q 944.799 472.416 943.624 471.535 L 943.624 471.535 L 943.624 471.535 Q 942.449 470.653 939.372 470.653 L 939.372 470.653 L 937.817 470.653 L 937.817 470.653 Q 937.091 470.653 937.091 469.824 L 937.091 469.824 L 937.091 469.824 Q 937.091 469.34 937.541 469.236 L 937.541 469.236 L 937.782 469.236 L 957.173 468.718 L 960.664 468.718 L 960.664 468.718 Q 966.851 469.132 970.965 473.176 L 970.965 473.176 L 970.965 473.176 Q 975.078 477.221 975.078 482.872 L 975.078 482.872 L 975.078 482.872 Q 975.078 488.523 971.034 493.12 L 971.034 493.12 L 971.034 493.12 Q 969.271 495.16 967.059 496.421 L 967.059 496.421 L 967.059 496.421 Q 964.847 497.683 962.704 497.717 L 962.704 497.717 L 952.334 497.303 L 952.058 497.303 L 952.058 497.303 Q 951.539 497.303 951.539 497.787 L 951.539 497.787 L 951.539 511.993 L 951.539 511.993 Q 951.539 513.894 952.576 514.792 L 952.576 514.792 L 952.576 514.792 Q 953.613 515.691 956.966 516.21 L 956.966 516.21 L 956.966 516.21 Q 957.415 516.279 958.418 516.434 L 958.418 516.434 L 958.418 516.434 Q 959.42 516.59 959.766 516.59 L 959.766 516.59 L 959.766 516.59 Q 960.111 516.59 960.111 516.866 L 960.111 516.866 L 960.111 517.696 L 960.111 517.696 Q 960.111 517.972 959.835 517.972 L 959.835 517.972 L 959.835 517.972 L 949.529 517.972 Q 948.658 518.039 948.014 518.205 L 948.014 518.205 L 948.014 518.205 Q 946.32 518.585 946.32 520.037 L 946.32 520.037 L 946.32 520.037 Q 946.32 520.625 946.908 521.523 L 946.908 521.523 L 956.517 534.278 L 956.517 534.278 Q 956.724 534.485 956.759 534.554 L 956.759 534.554 L 956.759 534.554 Q 956.793 534.623 957.087 534.623 L 957.087 534.623 L 957.087 534.623 Q 957.381 534.623 958.072 533.828 L 958.072 533.828 L 967.404 521.869 L 967.404 521.869 Q 968.061 521.074 968.061 520.175 L 968.061 520.175 L 968.061 520.175 Q 968.061 517.929 962.877 517.929 L 962.877 517.929 L 962.877 517.929 Q 962.6 517.929 962.6 517.652 L 962.6 517.652 L 962.6 516.788 L 962.6 516.788 Q 962.6 516.546 962.877 516.546 L 962.877 516.546 L 981.438 516.546 L 981.438 516.546 Q 981.714 516.546 981.714 516.823 L 981.714 516.823 L 981.714 517.652 L 981.714 517.652 Q 981.714 517.929 981.438 517.929 L 981.438 517.929 L 981.438 517.929 Q 975.907 517.929 970.446 524.289 L 970.446 524.289 L 959.731 538.287 L 959.731 538.287 Q 959.766 538.322 959.869 538.512 L 959.869 538.512 L 959.869 538.512 Q 959.973 538.702 961.079 540.24 L 961.079 540.24 L 961.079 540.24 Q 962.185 541.778 969.064 550.921 L 969.064 550.921 L 969.064 550.921 Q 975.942 560.063 976.841 560.858 L 976.841 560.858 L 976.841 560.858 Q 979.226 563.07 981.3 563.45 L 981.3 563.45 L 981.3 563.45 Q 981.714 563.658 982.25 563.692 L 982.25 563.692 L 982.25 563.692 Q 982.786 563.727 983.633 563.779 L 983.633 563.779 L 983.633 563.779 Q 984.479 563.831 984.479 564.487 L 984.479 564.487 L 984.479 564.487 Q 984.479 565.282 983.131 565.282 L 983.131 565.282 L 964.086 565.282 L 964.086 565.282 Q 963.81 565.282 963.81 565.006 L 963.81 565.006 L 963.81 564.176 L 963.81 564.176 Q 963.81 563.831 964.847 563.831 L 964.847 563.831 L 964.847 563.831 Q 968.614 563.934 968.614 561.826 L 968.614 561.826 L 968.614 561.826 Q 968.614 561.307 968.199 560.616 L 968.199 560.616 L 956.033 544.543 L 956.033 544.543 Q 955.756 544.198 955.445 544.198 L 955.445 544.198 L 955.445 544.198 Q 955.134 544.198 954.857 544.543 L 954.857 544.543 L 942.933 560.27 L 942.933 560.27 Q 942.449 560.927 942.449 561.826 L 942.449 561.826 L 942.449 561.826 L 942.449 561.826 Q 942.449 563.9 946.873 563.727 L 946.873 563.727 L 946.873 563.727 Q 948.463 563.658 948.463 564.176 L 948.463 564.176 L 948.463 565.006 L 948.463 565.006 Q 948.463 565.282 948.186 565.282 L 948.186 565.282 L 929.418 565.282 L 929.418 565.282 Q 929.141 565.282 929.141 565.006 L 929.141 565.006 L 929.141 564.176 L 929.141 564.176 Q 929.141 563.9 929.418 563.9 L 929.418 563.9 L 930.766 563.9 L 930.766 563.9 Q 935.328 563.347 939.822 557.574 L 939.822 557.574 L 939.822 557.574 Q 941.032 556.054 942.207 554.74 L 942.207 554.74 L 953.095 540.396 L 942.552 526.812 L 942.552 526.812 Q 941.55 525.533 940.617 524.219 L 940.617 524.219 L 940.617 524.219 Q 937.229 519.449 933.151 518.482 L 933.151 518.482 L 933.151 518.482 Q 932.158 518.084 930.665 517.972 L 922.173 517.972 L 922.781 527.78 L 922.781 527.78 Q 922.781 528.125 922.263 528.125 L 922.263 528.125 L 922.263 528.125 Q 921.744 528.125 921.502 527.814 L 921.502 527.814 L 921.502 527.814 Q 921.295 527.468 920.967 525.291 L 920.967 525.291 L 920.967 525.291 Q 920.638 523.113 919.774 521.662 L 919.774 521.662 L 919.774 521.662 Q 918.91 520.21 916.733 519.83 L 916.733 519.83 L 902.319 519.83 L 902.319 519.83 Q 901.87 519.83 901.87 520.279 L 901.87 520.279 L 901.87 538.149 L 901.87 538.149 Q 901.87 538.495 902.215 538.495 L 902.215 538.495 L 914.175 538.495 L 914.175 538.495 Q 918.806 538.495 918.806 533.103 L 918.806 533.103 L 918.806 533.103 Q 918.806 532.826 919.083 532.826 L 919.083 532.826 L 919.912 532.826 L 919.912 532.826 Q 920.189 532.826 920.189 533.103 L 920.189 533.103 L 920.189 547.896 L 920.189 547.896 Q 920.189 548.173 919.912 548.173 L 919.912 548.173 L 919.083 548.173 L 919.083 548.173 Q 918.806 548.173 918.806 547.896 L 918.806 547.896 L 918.806 547.896 Q 918.806 542.781 915.834 541.986 L 915.834 541.986 L 915.834 541.986 Q 915.004 541.778 914.071 541.778 L 914.071 541.778 L 902.215 541.778 L 902.215 541.778 Q 901.87 541.778 901.87 542.124 L 901.87 542.124 L 901.87 558.957 L 901.87 558.957 Q 901.87 561.549 904.255 561.895 L 904.255 561.895 L 904.255 561.895 Q 904.946 561.999 905.706 561.999 L 905.706 561.999 L 917.216 561.999 L 917.216 561.999 Q 920.777 561.999 922.747 558.853 L 922.747 558.853 L 922.747 558.853 Q 924.164 556.607 924.475 553.703 L 924.475 553.703 L 924.475 553.703 Q 924.579 552.735 925.512 552.735 L 925.512 552.735 L 925.512 552.735 Q 925.927 552.735 925.927 553.185 L 925.927 553.185 L 924.786 564.798 L 924.786 564.798 Q 924.579 565.282 924.302 565.282 L 924.302 565.282 L 885.797 565.282 L 885.797 565.282 Q 885.521 565.282 885.521 565.006 L 885.521 565.006 L 885.521 565.006 L 885.521 564.038 L 885.521 564.038 Q 885.521 563.762 885.797 563.762 L 885.797 563.762 L 886.557 563.762 L 886.557 563.762 Q 888.009 563.658 889.53 563.641 L 889.53 563.641 L 889.53 563.641 Q 891.051 563.623 892.295 563.278 L 892.295 563.278 L 892.295 563.278 Q 895.13 562.448 895.13 559.13 L 895.13 559.13 L 895.13 522.699 L 895.13 522.699 Q 895.13 519.277 891.085 518.343 L 891.085 518.343 L 891.085 518.343 Q 890.086 518.131 889.06 517.972 Z  M 914.754 516.546 Q 914.917 516.531 915.108 516.521 L 915.108 516.521 L 915.108 516.521 Q 916.387 516.452 917.216 516.382 L 917.216 516.382 L 917.216 516.382 Q 922.021 515.864 922.021 513.133 L 922.021 513.133 L 922.021 513.133 Q 922.021 512.926 921.952 512.649 L 921.952 512.649 L 916.733 497.925 L 916.733 497.925 Q 916.698 497.856 916.594 497.614 L 916.594 497.614 L 916.594 497.614 Q 916.179 496.439 915.143 496.439 L 915.143 496.439 L 902.872 496.439 L 902.872 496.439 Q 901.835 496.439 901.247 497.579 L 901.247 497.579 L 901.247 497.579 Q 901.144 497.821 901.144 497.856 L 901.144 497.856 L 895.959 513.03 L 895.959 513.341 L 895.959 513.341 Q 895.959 514.239 896.892 514.965 L 896.892 514.965 L 896.892 514.965 Q 898.654 516.323 901.43 516.546 L 901.43 516.546 L 914.754 516.546 Z  M 903.771 492.602 L 913.967 492.602 L 913.967 492.602 Q 914.589 492.602 914.589 492.083 L 914.589 492.083 L 914.589 492.083 Q 914.589 491.807 914.451 491.461 L 914.451 491.461 L 909.301 477.29 L 909.301 477.29 Q 908.955 476.356 908.783 476.356 L 908.783 476.356 L 908.783 476.356 Q 908.61 476.356 908.23 477.324 L 908.23 477.324 L 903.391 491.461 L 903.391 491.461 Q 903.252 491.807 903.252 492.204 L 903.252 492.204 L 903.252 492.204 Q 903.252 492.602 903.771 492.602 L 903.771 492.602 L 903.771 492.602 Z  M 954.339 470.463 L 954.339 470.463 L 954.339 470.463 Q 953.924 470.48 953.458 470.498 L 953.458 470.498 L 953.458 470.498 Q 952.991 470.515 952.265 470.532 L 952.265 470.532 L 952.265 470.532 Q 951.539 470.55 951.539 471.103 L 951.539 471.103 L 951.539 493.397 L 951.608 494.434 L 951.608 494.434 Q 951.712 495.16 952.265 495.194 L 952.265 495.194 L 955.791 495.402 L 955.791 495.402 Q 961.356 495.402 964.76 491.669 L 964.76 491.669 L 964.76 491.669 Q 968.165 487.936 968.165 482.284 L 968.165 482.284 L 968.165 482.284 Q 968.165 476.633 964.864 473.522 L 964.864 473.522 L 964.864 473.522 Q 961.563 470.411 956.067 470.411 L 956.067 470.411 L 956.067 470.411 Q 955.583 470.411 955.169 470.429 L 955.169 470.429 L 955.169 470.429 Q 954.754 470.446 954.339 470.463 L 954.339 470.463 Z " fill-rule="evenodd" fill="white" stroke="none"/></mask><path d=" M 889.06 517.972 L 885.797 517.972 L 885.797 517.972 Q 885.521 517.972 885.521 517.696 L 885.521 517.696 L 885.521 516.866 L 885.521 516.866 Q 885.521 516.59 885.97 516.59 L 885.97 516.59 L 885.97 516.59 Q 890.705 516.382 892.364 511.543 L 892.364 511.543 L 906.467 470.722 L 906.467 470.722 Q 906.501 470.653 906.501 470.55 L 906.501 470.55 L 906.121 469.409 L 906.121 469.409 Q 906.121 469.236 906.259 469.236 L 906.259 469.236 L 913.172 469.236 L 913.172 469.236 Q 913.241 469.271 913.362 469.305 L 913.362 469.305 L 913.362 469.305 Q 913.483 469.34 913.553 469.513 L 913.553 469.513 L 928.173 510.541 L 928.173 510.541 Q 928.657 511.474 928.951 512.235 L 928.951 512.235 L 928.951 512.235 Q 929.245 512.995 929.625 513.617 L 929.625 513.617 L 929.625 513.617 Q 930.455 515.034 932.356 515.795 L 932.356 515.795 L 932.356 515.795 Q 933.572 516.403 934.627 516.546 L 939.621 516.546 Q 939.89 516.494 940.254 516.382 L 940.254 516.382 L 940.254 516.382 Q 940.928 516.175 941.274 516.106 L 941.274 516.106 L 941.274 516.106 Q 944.799 515.311 944.799 512.096 L 944.799 512.096 L 944.799 475.596 L 944.799 475.596 Q 944.799 472.416 943.624 471.535 L 943.624 471.535 L 943.624 471.535 Q 942.449 470.653 939.372 470.653 L 939.372 470.653 L 937.817 470.653 L 937.817 470.653 Q 937.091 470.653 937.091 469.824 L 937.091 469.824 L 937.091 469.824 Q 937.091 469.34 937.541 469.236 L 937.541 469.236 L 937.782 469.236 L 957.173 468.718 L 960.664 468.718 L 960.664 468.718 Q 966.851 469.132 970.965 473.176 L 970.965 473.176 L 970.965 473.176 Q 975.078 477.221 975.078 482.872 L 975.078 482.872 L 975.078 482.872 Q 975.078 488.523 971.034 493.12 L 971.034 493.12 L 971.034 493.12 Q 969.271 495.16 967.059 496.421 L 967.059 496.421 L 967.059 496.421 Q 964.847 497.683 962.704 497.717 L 962.704 497.717 L 952.334 497.303 L 952.058 497.303 L 952.058 497.303 Q 951.539 497.303 951.539 497.787 L 951.539 497.787 L 951.539 511.993 L 951.539 511.993 Q 951.539 513.894 952.576 514.792 L 952.576 514.792 L 952.576 514.792 Q 953.613 515.691 956.966 516.21 L 956.966 516.21 L 956.966 516.21 Q 957.415 516.279 958.418 516.434 L 958.418 516.434 L 958.418 516.434 Q 959.42 516.59 959.766 516.59 L 959.766 516.59 L 959.766 516.59 Q 960.111 516.59 960.111 516.866 L 960.111 516.866 L 960.111 517.696 L 960.111 517.696 Q 960.111 517.972 959.835 517.972 L 959.835 517.972 L 959.835 517.972 L 949.529 517.972 Q 948.658 518.039 948.014 518.205 L 948.014 518.205 L 948.014 518.205 Q 946.32 518.585 946.32 520.037 L 946.32 520.037 L 946.32 520.037 Q 946.32 520.625 946.908 521.523 L 946.908 521.523 L 956.517 534.278 L 956.517 534.278 Q 956.724 534.485 956.759 534.554 L 956.759 534.554 L 956.759 534.554 Q 956.793 534.623 957.087 534.623 L 957.087 534.623 L 957.087 534.623 Q 957.381 534.623 958.072 533.828 L 958.072 533.828 L 967.404 521.869 L 967.404 521.869 Q 968.061 521.074 968.061 520.175 L 968.061 520.175 L 968.061 520.175 Q 968.061 517.929 962.877 517.929 L 962.877 517.929 L 962.877 517.929 Q 962.6 517.929 962.6 517.652 L 962.6 517.652 L 962.6 516.788 L 962.6 516.788 Q 962.6 516.546 962.877 516.546 L 962.877 516.546 L 981.438 516.546 L 981.438 516.546 Q 981.714 516.546 981.714 516.823 L 981.714 516.823 L 981.714 517.652 L 981.714 517.652 Q 981.714 517.929 981.438 517.929 L 981.438 517.929 L 981.438 517.929 Q 975.907 517.929 970.446 524.289 L 970.446 524.289 L 959.731 538.287 L 959.731 538.287 Q 959.766 538.322 959.869 538.512 L 959.869 538.512 L 959.869 538.512 Q 959.973 538.702 961.079 540.24 L 961.079 540.24 L 961.079 540.24 Q 962.185 541.778 969.064 550.921 L 969.064 550.921 L 969.064 550.921 Q 975.942 560.063 976.841 560.858 L 976.841 560.858 L 976.841 560.858 Q 979.226 563.07 981.3 563.45 L 981.3 563.45 L 981.3 563.45 Q 981.714 563.658 982.25 563.692 L 982.25 563.692 L 982.25 563.692 Q 982.786 563.727 983.633 563.779 L 983.633 563.779 L 983.633 563.779 Q 984.479 563.831 984.479 564.487 L 984.479 564.487 L 984.479 564.487 Q 984.479 565.282 983.131 565.282 L 983.131 565.282 L 964.086 565.282 L 964.086 565.282 Q 963.81 565.282 963.81 565.006 L 963.81 565.006 L 963.81 564.176 L 963.81 564.176 Q 963.81 563.831 964.847 563.831 L 964.847 563.831 L 964.847 563.831 Q 968.614 563.934 968.614 561.826 L 968.614 561.826 L 968.614 561.826 Q 968.614 561.307 968.199 560.616 L 968.199 560.616 L 956.033 544.543 L 956.033 544.543 Q 955.756 544.198 955.445 544.198 L 955.445 544.198 L 955.445 544.198 Q 955.134 544.198 954.857 544.543 L 954.857 544.543 L 942.933 560.27 L 942.933 560.27 Q 942.449 560.927 942.449 561.826 L 942.449 561.826 L 942.449 561.826 L 942.449 561.826 Q 942.449 563.9 946.873 563.727 L 946.873 563.727 L 946.873 563.727 Q 948.463 563.658 948.463 564.176 L 948.463 564.176 L 948.463 565.006 L 948.463 565.006 Q 948.463 565.282 948.186 565.282 L 948.186 565.282 L 929.418 565.282 L 929.418 565.282 Q 929.141 565.282 929.141 565.006 L 929.141 565.006 L 929.141 564.176 L 929.141 564.176 Q 929.141 563.9 929.418 563.9 L 929.418 563.9 L 930.766 563.9 L 930.766 563.9 Q 935.328 563.347 939.822 557.574 L 939.822 557.574 L 939.822 557.574 Q 941.032 556.054 942.207 554.74 L 942.207 554.74 L 953.095 540.396 L 942.552 526.812 L 942.552 526.812 Q 941.55 525.533 940.617 524.219 L 940.617 524.219 L 940.617 524.219 Q 937.229 519.449 933.151 518.482 L 933.151 518.482 L 933.151 518.482 Q 932.158 518.084 930.665 517.972 L 922.173 517.972 L 922.781 527.78 L 922.781 527.78 Q 922.781 528.125 922.263 528.125 L 922.263 528.125 L 922.263 528.125 Q 921.744 528.125 921.502 527.814 L 921.502 527.814 L 921.502 527.814 Q 921.295 527.468 920.967 525.291 L 920.967 525.291 L 920.967 525.291 Q 920.638 523.113 919.774 521.662 L 919.774 521.662 L 919.774 521.662 Q 918.91 520.21 916.733 519.83 L 916.733 519.83 L 902.319 519.83 L 902.319 519.83 Q 901.87 519.83 901.87 520.279 L 901.87 520.279 L 901.87 538.149 L 901.87 538.149 Q 901.87 538.495 902.215 538.495 L 902.215 538.495 L 914.175 538.495 L 914.175 538.495 Q 918.806 538.495 918.806 533.103 L 918.806 533.103 L 918.806 533.103 Q 918.806 532.826 919.083 532.826 L 919.083 532.826 L 919.912 532.826 L 919.912 532.826 Q 920.189 532.826 920.189 533.103 L 920.189 533.103 L 920.189 547.896 L 920.189 547.896 Q 920.189 548.173 919.912 548.173 L 919.912 548.173 L 919.083 548.173 L 919.083 548.173 Q 918.806 548.173 918.806 547.896 L 918.806 547.896 L 918.806 547.896 Q 918.806 542.781 915.834 541.986 L 915.834 541.986 L 915.834 541.986 Q 915.004 541.778 914.071 541.778 L 914.071 541.778 L 902.215 541.778 L 902.215 541.778 Q 901.87 541.778 901.87 542.124 L 901.87 542.124 L 901.87 558.957 L 901.87 558.957 Q 901.87 561.549 904.255 561.895 L 904.255 561.895 L 904.255 561.895 Q 904.946 561.999 905.706 561.999 L 905.706 561.999 L 917.216 561.999 L 917.216 561.999 Q 920.777 561.999 922.747 558.853 L 922.747 558.853 L 922.747 558.853 Q 924.164 556.607 924.475 553.703 L 924.475 553.703 L 924.475 553.703 Q 924.579 552.735 925.512 552.735 L 925.512 552.735 L 925.512 552.735 Q 925.927 552.735 925.927 553.185 L 925.927 553.185 L 924.786 564.798 L 924.786 564.798 Q 924.579 565.282 924.302 565.282 L 924.302 565.282 L 885.797 565.282 L 885.797 565.282 Q 885.521 565.282 885.521 565.006 L 885.521 565.006 L 885.521 565.006 L 885.521 564.038 L 885.521 564.038 Q 885.521 563.762 885.797 563.762 L 885.797 563.762 L 886.557 563.762 L 886.557 563.762 Q 888.009 563.658 889.53 563.641 L 889.53 563.641 L 889.53 563.641 Q 891.051 563.623 892.295 563.278 L 892.295 563.278 L 892.295 563.278 Q 895.13 562.448 895.13 559.13 L 895.13 559.13 L 895.13 522.699 L 895.13 522.699 Q 895.13 519.277 891.085 518.343 L 891.085 518.343 L 891.085 518.343 Q 890.086 518.131 889.06 517.972 Z  M 914.754 516.546 Q 914.917 516.531 915.108 516.521 L 915.108 516.521 L 915.108 516.521 Q 916.387 516.452 917.216 516.382 L 917.216 516.382 L 917.216 516.382 Q 922.021 515.864 922.021 513.133 L 922.021 513.133 L 922.021 513.133 Q 922.021 512.926 921.952 512.649 L 921.952 512.649 L 916.733 497.925 L 916.733 497.925 Q 916.698 497.856 916.594 497.614 L 916.594 497.614 L 916.594 497.614 Q 916.179 496.439 915.143 496.439 L 915.143 496.439 L 902.872 496.439 L 902.872 496.439 Q 901.835 496.439 901.247 497.579 L 901.247 497.579 L 901.247 497.579 Q 901.144 497.821 901.144 497.856 L 901.144 497.856 L 895.959 513.03 L 895.959 513.341 L 895.959 513.341 Q 895.959 514.239 896.892 514.965 L 896.892 514.965 L 896.892 514.965 Q 898.654 516.323 901.43 516.546 L 901.43 516.546 L 914.754 516.546 Z  M 903.771 492.602 L 913.967 492.602 L 913.967 492.602 Q 914.589 492.602 914.589 492.083 L 914.589 492.083 L 914.589 492.083 Q 914.589 491.807 914.451 491.461 L 914.451 491.461 L 909.301 477.29 L 909.301 477.29 Q 908.955 476.356 908.783 476.356 L 908.783 476.356 L 908.783 476.356 Q 908.61 476.356 908.23 477.324 L 908.23 477.324 L 903.391 491.461 L 903.391 491.461 Q 903.252 491.807 903.252 492.204 L 903.252 492.204 L 903.252 492.204 Q 903.252 492.602 903.771 492.602 L 903.771 492.602 L 903.771 492.602 Z  M 954.339 470.463 L 954.339 470.463 L 954.339 470.463 Q 953.924 470.48 953.458 470.498 L 953.458 470.498 L 953.458 470.498 Q 952.991 470.515 952.265 470.532 L 952.265 470.532 L 952.265 470.532 Q 951.539 470.55 951.539 471.103 L 951.539 471.103 L 951.539 493.397 L 951.608 494.434 L 951.608 494.434 Q 951.712 495.16 952.265 495.194 L 952.265 495.194 L 955.791 495.402 L 955.791 495.402 Q 961.356 495.402 964.76 491.669 L 964.76 491.669 L 964.76 491.669 Q 968.165 487.936 968.165 482.284 L 968.165 482.284 L 968.165 482.284 Q 968.165 476.633 964.864 473.522 L 964.864 473.522 L 964.864 473.522 Q 961.563 470.411 956.067 470.411 L 956.067 470.411 L 956.067 470.411 Q 955.583 470.411 955.169 470.429 L 955.169 470.429 L 955.169 470.429 Q 954.754 470.446 954.339 470.463 L 954.339 470.463 Z " fill-rule="evenodd" fill="none"/><path d=" M 889.06 517.972 L 885.797 517.972 L 885.797 517.972 Q 885.521 517.972 885.521 517.696 L 885.521 517.696 L 885.521 516.866 L 885.521 516.866 Q 885.521 516.59 885.97 516.59 L 885.97 516.59 L 885.97 516.59 Q 890.705 516.382 892.364 511.543 L 892.364 511.543 L 906.467 470.722 L 906.467 470.722 Q 906.501 470.653 906.501 470.55 L 906.501 470.55 L 906.121 469.409 L 906.121 469.409 Q 906.121 469.236 906.259 469.236 L 906.259 469.236 L 913.172 469.236 L 913.172 469.236 Q 913.241 469.271 913.362 469.305 L 913.362 469.305 L 913.362 469.305 Q 913.483 469.34 913.553 469.513 L 913.553 469.513 L 928.173 510.541 L 928.173 510.541 Q 928.657 511.474 928.951 512.235 L 928.951 512.235 L 928.951 512.235 Q 929.245 512.995 929.625 513.617 L 929.625 513.617 L 929.625 513.617 Q 930.455 515.034 932.356 515.795 L 932.356 515.795 L 932.356 515.795 Q 933.572 516.403 934.627 516.546 L 939.621 516.546 Q 939.89 516.494 940.254 516.382 L 940.254 516.382 L 940.254 516.382 Q 940.928 516.175 941.274 516.106 L 941.274 516.106 L 941.274 516.106 Q 944.799 515.311 944.799 512.096 L 944.799 512.096 L 944.799 475.596 L 944.799 475.596 Q 944.799 472.416 943.624 471.535 L 943.624 471.535 L 943.624 471.535 Q 942.449 470.653 939.372 470.653 L 939.372 470.653 L 937.817 470.653 L 937.817 470.653 Q 937.091 470.653 937.091 469.824 L 937.091 469.824 L 937.091 469.824 Q 937.091 469.34 937.541 469.236 L 937.541 469.236 L 937.782 469.236 L 957.173 468.718 L 960.664 468.718 L 960.664 468.718 Q 966.851 469.132 970.965 473.176 L 970.965 473.176 L 970.965 473.176 Q 975.078 477.221 975.078 482.872 L 975.078 482.872 L 975.078 482.872 Q 975.078 488.523 971.034 493.12 L 971.034 493.12 L 971.034 493.12 Q 969.271 495.16 967.059 496.421 L 967.059 496.421 L 967.059 496.421 Q 964.847 497.683 962.704 497.717 L 962.704 497.717 L 952.334 497.303 L 952.058 497.303 L 952.058 497.303 Q 951.539 497.303 951.539 497.787 L 951.539 497.787 L 951.539 511.993 L 951.539 511.993 Q 951.539 513.894 952.576 514.792 L 952.576 514.792 L 952.576 514.792 Q 953.613 515.691 956.966 516.21 L 956.966 516.21 L 956.966 516.21 Q 957.415 516.279 958.418 516.434 L 958.418 516.434 L 958.418 516.434 Q 959.42 516.59 959.766 516.59 L 959.766 516.59 L 959.766 516.59 Q 960.111 516.59 960.111 516.866 L 960.111 516.866 L 960.111 517.696 L 960.111 517.696 Q 960.111 517.972 959.835 517.972 L 959.835 517.972 L 959.835 517.972 L 949.529 517.972 Q 948.658 518.039 948.014 518.205 L 948.014 518.205 L 948.014 518.205 Q 946.32 518.585 946.32 520.037 L 946.32 520.037 L 946.32 520.037 Q 946.32 520.625 946.908 521.523 L 946.908 521.523 L 956.517 534.278 L 956.517 534.278 Q 956.724 534.485 956.759 534.554 L 956.759 534.554 L 956.759 534.554 Q 956.793 534.623 957.087 534.623 L 957.087 534.623 L 957.087 534.623 Q 957.381 534.623 958.072 533.828 L 958.072 533.828 L 967.404 521.869 L 967.404 521.869 Q 968.061 521.074 968.061 520.175 L 968.061 520.175 L 968.061 520.175 Q 968.061 517.929 962.877 517.929 L 962.877 517.929 L 962.877 517.929 Q 962.6 517.929 962.6 517.652 L 962.6 517.652 L 962.6 516.788 L 962.6 516.788 Q 962.6 516.546 962.877 516.546 L 962.877 516.546 L 981.438 516.546 L 981.438 516.546 Q 981.714 516.546 981.714 516.823 L 981.714 516.823 L 981.714 517.652 L 981.714 517.652 Q 981.714 517.929 981.438 517.929 L 981.438 517.929 L 981.438 517.929 Q 975.907 517.929 970.446 524.289 L 970.446 524.289 L 959.731 538.287 L 959.731 538.287 Q 959.766 538.322 959.869 538.512 L 959.869 538.512 L 959.869 538.512 Q 959.973 538.702 961.079 540.24 L 961.079 540.24 L 961.079 540.24 Q 962.185 541.778 969.064 550.921 L 969.064 550.921 L 969.064 550.921 Q 975.942 560.063 976.841 560.858 L 976.841 560.858 L 976.841 560.858 Q 979.226 563.07 981.3 563.45 L 981.3 563.45 L 981.3 563.45 Q 981.714 563.658 982.25 563.692 L 982.25 563.692 L 982.25 563.692 Q 982.786 563.727 983.633 563.779 L 983.633 563.779 L 983.633 563.779 Q 984.479 563.831 984.479 564.487 L 984.479 564.487 L 984.479 564.487 Q 984.479 565.282 983.131 565.282 L 983.131 565.282 L 964.086 565.282 L 964.086 565.282 Q 963.81 565.282 963.81 565.006 L 963.81 565.006 L 963.81 564.176 L 963.81 564.176 Q 963.81 563.831 964.847 563.831 L 964.847 563.831 L 964.847 563.831 Q 968.614 563.934 968.614 561.826 L 968.614 561.826 L 968.614 561.826 Q 968.614 561.307 968.199 560.616 L 968.199 560.616 L 956.033 544.543 L 956.033 544.543 Q 955.756 544.198 955.445 544.198 L 955.445 544.198 L 955.445 544.198 Q 955.134 544.198 954.857 544.543 L 954.857 544.543 L 942.933 560.27 L 942.933 560.27 Q 942.449 560.927 942.449 561.826 L 942.449 561.826 L 942.449 561.826 L 942.449 561.826 Q 942.449 563.9 946.873 563.727 L 946.873 563.727 L 946.873 563.727 Q 948.463 563.658 948.463 564.176 L 948.463 564.176 L 948.463 565.006 L 948.463 565.006 Q 948.463 565.282 948.186 565.282 L 948.186 565.282 L 929.418 565.282 L 929.418 565.282 Q 929.141 565.282 929.141 565.006 L 929.141 565.006 L 929.141 564.176 L 929.141 564.176 Q 929.141 563.9 929.418 563.9 L 929.418 563.9 L 930.766 563.9 L 930.766 563.9 Q 935.328 563.347 939.822 557.574 L 939.822 557.574 L 939.822 557.574 Q 941.032 556.054 942.207 554.74 L 942.207 554.74 L 953.095 540.396 L 942.552 526.812 L 942.552 526.812 Q 941.55 525.533 940.617 524.219 L 940.617 524.219 L 940.617 524.219 Q 937.229 519.449 933.151 518.482 L 933.151 518.482 L 933.151 518.482 Q 932.158 518.084 930.665 517.972 L 922.173 517.972 L 922.781 527.78 L 922.781 527.78 Q 922.781 528.125 922.263 528.125 L 922.263 528.125 L 922.263 528.125 Q 921.744 528.125 921.502 527.814 L 921.502 527.814 L 921.502 527.814 Q 921.295 527.468 920.967 525.291 L 920.967 525.291 L 920.967 525.291 Q 920.638 523.113 919.774 521.662 L 919.774 521.662 L 919.774 521.662 Q 918.91 520.21 916.733 519.83 L 916.733 519.83 L 902.319 519.83 L 902.319 519.83 Q 901.87 519.83 901.87 520.279 L 901.87 520.279 L 901.87 538.149 L 901.87 538.149 Q 901.87 538.495 902.215 538.495 L 902.215 538.495 L 914.175 538.495 L 914.175 538.495 Q 918.806 538.495 918.806 533.103 L 918.806 533.103 L 918.806 533.103 Q 918.806 532.826 919.083 532.826 L 919.083 532.826 L 919.912 532.826 L 919.912 532.826 Q 920.189 532.826 920.189 533.103 L 920.189 533.103 L 920.189 547.896 L 920.189 547.896 Q 920.189 548.173 919.912 548.173 L 919.912 548.173 L 919.083 548.173 L 919.083 548.173 Q 918.806 548.173 918.806 547.896 L 918.806 547.896 L 918.806 547.896 Q 918.806 542.781 915.834 541.986 L 915.834 541.986 L 915.834 541.986 Q 915.004 541.778 914.071 541.778 L 914.071 541.778 L 902.215 541.778 L 902.215 541.778 Q 901.87 541.778 901.87 542.124 L 901.87 542.124 L 901.87 558.957 L 901.87 558.957 Q 901.87 561.549 904.255 561.895 L 904.255 561.895 L 904.255 561.895 Q 904.946 561.999 905.706 561.999 L 905.706 561.999 L 917.216 561.999 L 917.216 561.999 Q 920.777 561.999 922.747 558.853 L 922.747 558.853 L 922.747 558.853 Q 924.164 556.607 924.475 553.703 L 924.475 553.703 L 924.475 553.703 Q 924.579 552.735 925.512 552.735 L 925.512 552.735 L 925.512 552.735 Q 925.927 552.735 925.927 553.185 L 925.927 553.185 L 924.786 564.798 L 924.786 564.798 Q 924.579 565.282 924.302 565.282 L 924.302 565.282 L 885.797 565.282 L 885.797 565.282 Q 885.521 565.282 885.521 565.006 L 885.521 565.006 L 885.521 565.006 L 885.521 564.038 L 885.521 564.038 Q 885.521 563.762 885.797 563.762 L 885.797 563.762 L 886.557 563.762 L 886.557 563.762 Q 888.009 563.658 889.53 563.641 L 889.53 563.641 L 889.53 563.641 Q 891.051 563.623 892.295 563.278 L 892.295 563.278 L 892.295 563.278 Q 895.13 562.448 895.13 559.13 L 895.13 559.13 L 895.13 522.699 L 895.13 522.699 Q 895.13 519.277 891.085 518.343 L 891.085 518.343 L 891.085 518.343 Q 890.086 518.131 889.06 517.972 Z  M 914.754 516.546 Q 914.917 516.531 915.108 516.521 L 915.108 516.521 L 915.108 516.521 Q 916.387 516.452 917.216 516.382 L 917.216 516.382 L 917.216 516.382 Q 922.021 515.864 922.021 513.133 L 922.021 513.133 L 922.021 513.133 Q 922.021 512.926 921.952 512.649 L 921.952 512.649 L 916.733 497.925 L 916.733 497.925 Q 916.698 497.856 916.594 497.614 L 916.594 497.614 L 916.594 497.614 Q 916.179 496.439 915.143 496.439 L 915.143 496.439 L 902.872 496.439 L 902.872 496.439 Q 901.835 496.439 901.247 497.579 L 901.247 497.579 L 901.247 497.579 Q 901.144 497.821 901.144 497.856 L 901.144 497.856 L 895.959 513.03 L 895.959 513.341 L 895.959 513.341 Q 895.959 514.239 896.892 514.965 L 896.892 514.965 L 896.892 514.965 Q 898.654 516.323 901.43 516.546 L 901.43 516.546 L 914.754 516.546 Z  M 903.771 492.602 L 913.967 492.602 L 913.967 492.602 Q 914.589 492.602 914.589 492.083 L 914.589 492.083 L 914.589 492.083 Q 914.589 491.807 914.451 491.461 L 914.451 491.461 L 909.301 477.29 L 909.301 477.29 Q 908.955 476.356 908.783 476.356 L 908.783 476.356 L 908.783 476.356 Q 908.61 476.356 908.23 477.324 L 908.23 477.324 L 903.391 491.461 L 903.391 491.461 Q 903.252 491.807 903.252 492.204 L 903.252 492.204 L 903.252 492.204 Q 903.252 492.602 903.771 492.602 L 903.771 492.602 L 903.771 492.602 Z  M 954.339 470.463 L 954.339 470.463 L 954.339 470.463 Q 953.924 470.48 953.458 470.498 L 953.458 470.498 L 953.458 470.498 Q 952.991 470.515 952.265 470.532 L 952.265 470.532 L 952.265 470.532 Q 951.539 470.55 951.539 471.103 L 951.539 471.103 L 951.539 493.397 L 951.608 494.434 L 951.608 494.434 Q 951.712 495.16 952.265 495.194 L 952.265 495.194 L 955.791 495.402 L 955.791 495.402 Q 961.356 495.402 964.76 491.669 L 964.76 491.669 L 964.76 491.669 Q 968.165 487.936 968.165 482.284 L 968.165 482.284 L 968.165 482.284 Q 968.165 476.633 964.864 473.522 L 964.864 473.522 L 964.864 473.522 Q 961.563 470.411 956.067 470.411 L 956.067 470.411 L 956.067 470.411 Q 955.583 470.411 955.169 470.429 L 955.169 470.429 L 955.169 470.429 Q 954.754 470.446 954.339 470.463 L 954.339 470.463 Z " fill-rule="evenodd" fill="none" mask="url(#_mask_OVNR59qiAKIm2IJXhQMQpexFIl3IHbhM)" vector-effect="non-scaling-stroke" stroke-width="2" stroke="rgb(255,255,255)" stroke-linejoin="miter" stroke-linecap="square" stroke-miterlimit="3"/></svg>